<svg width="40" height="40" viewBox="0 0 40 40" fill="none" xmlns="http://www.w3.org/2000/svg">
<path d="M12.4993 14.1827C12.4993 15.1027 13.246 15.8494 14.166 15.8494C15.086 15.8494 15.8327 15.1027 15.8327 14.1827V14.166C15.8327 13.246 15.086 12.5077 14.166 12.5077C13.246 12.5077 12.4993 13.2627 12.4993 14.1827Z" fill="#FF6A3D"/>
<path d="M26.666 27.516C25.7443 27.516 24.9993 26.771 24.9993 25.8494C24.9993 24.9277 25.7443 24.1744 26.666 24.1744C27.5877 24.1744 28.3327 24.911 28.3327 25.8327V25.8494C28.3327 26.771 27.5877 27.516 26.666 27.516Z" fill="#FF6A3D"/>
<path d="M18.3327 20.016C18.3327 20.936 19.0793 21.6827 19.9993 21.6827C20.9193 21.6827 21.666 20.936 21.666 20.016V19.9994C21.666 19.0794 20.9193 18.341 19.9993 18.341C19.0793 18.341 18.3327 19.096 18.3327 20.016Z" fill="#FF6A3D"/>
<path d="M18.3327 30.016C17.4127 30.016 16.666 29.271 16.666 28.3494C16.666 27.4277 17.4127 26.6744 18.3327 26.6744C19.2527 26.6744 19.9993 27.411 19.9993 28.3327V28.3494C19.9993 29.271 19.2527 30.016 18.3327 30.016Z" fill="#FF6A3D"/>
<path d="M9.99935 23.3494C9.99935 24.271 10.746 25.016 11.666 25.016C12.586 25.016 13.3327 24.271 13.3327 23.3494V23.3327C13.3327 22.411 12.586 21.6744 11.666 21.6744C10.746 21.6744 9.99935 22.4277 9.99935 23.3494Z" fill="#FF6A3D"/>
<path fill-rule="evenodd" clip-rule="evenodd" d="M1.66602 19.9993C1.66602 30.1077 9.89102 38.3327 19.9993 38.3327C30.1077 38.3327 38.3327 30.1077 38.3327 19.9993C38.3327 19.471 38.0827 18.9727 37.656 18.6577C37.231 18.3427 36.6827 18.251 36.176 18.406C33.536 19.216 30.736 17.7327 29.926 15.0993C29.6277 14.136 29.6277 13.1193 29.926 12.156C30.106 11.566 29.9477 10.926 29.511 10.4877C29.0743 10.0493 28.431 9.89102 27.8427 10.0727C25.211 10.881 22.406 9.40101 21.5927 6.76602C21.296 5.80268 21.296 4.78602 21.5927 3.82268C21.7477 3.31768 21.656 2.76768 21.341 2.34268C21.026 1.91768 20.5277 1.66602 19.9993 1.66602C9.89102 1.66602 1.66602 9.89102 1.66602 19.9993ZM4.99935 19.9993C4.99935 12.3943 10.691 6.09102 18.0377 5.12768C18.0193 6.00768 18.1427 6.89102 18.406 7.74768C19.506 11.3227 22.8077 13.6277 26.3693 13.6293C26.3693 14.4527 26.4943 15.2793 26.7393 16.081C27.8427 19.6593 31.1477 21.9627 34.7093 21.9627C34.7368 21.9627 34.7639 21.9623 34.791 21.9618L34.8148 21.9615L34.8727 21.961C33.9093 29.3077 27.606 34.9993 19.9993 34.9993C11.7293 34.9993 4.99935 28.271 4.99935 19.9993Z" fill="#FF6A3D"/>
</svg>
